<?xml version="1.0" standalone="no"?>
<!DOCTYPE svg PUBLIC "-//W3C//DTD SVG 20010904//EN"
 "http://www.w3.org/TR/2001/REC-SVG-20010904/DTD/svg10.dtd">
<svg version="1.0" xmlns="http://www.w3.org/2000/svg"
 width="300.000000pt" height="300.000000pt" viewBox="0 0 300.000000 300.000000"
 preserveAspectRatio="xMidYMid meet">
<metadata>
Created by potrace 1.10, written by Peter Selinger 2001-2011
</metadata>
<g transform="translate(0.000000,300.000000) scale(0.100000,-0.100000)"
fill="#4399b1" stroke="none">
<path d="M1470 2757 c-14 -8 -61 -35 -105 -62 -85 -51 -111 -65 -190 -110 -27
-15 -61 -35 -75 -44 -14 -10 -52 -30 -85 -47 -33 -16 -64 -34 -70 -40 -5 -6
-35 -25 -65 -41 -89 -48 -104 -57 -116 -72 -6 -8 -18 -11 -28 -8 -9 4 -14 3
-11 -2 5 -9 -58 -47 -169 -103 -21 -11 -44 -24 -50 -29 -6 -5 -32 -23 -59 -39
l-47 -30 2 -632 3 -632 95 -58 c52 -32 105 -63 118 -68 12 -5 22 -14 22 -20 0
-5 7 -10 16 -10 9 0 28 -8 42 -19 25 -17 71 -43 192 -109 25 -13 51 -29 58
-35 7 -6 32 -20 55 -31 23 -12 68 -38 99 -59 31 -20 60 -37 63 -37 3 0 18 -8
33 -19 22 -15 162 -96 275 -158 26 -15 54 -8 83 18 11 11 25 19 32 19 6 0 64
32 129 71 65 39 156 91 203 116 47 25 114 64 150 88 36 24 78 47 93 50 15 4
27 11 27 16 0 5 4 9 9 9 8 0 29 12 134 73 18 11 41 27 53 38 11 10 26 19 33
19 13 0 72 30 81 41 3 3 19 13 37 22 66 34 71 49 72 229 2 265 1 689 -1 890
-3 212 2 197 -93 248 -33 18 -67 39 -76 46 -8 8 -20 14 -26 14 -5 0 -48 23
-94 51 -46 28 -94 55 -107 60 -13 5 -38 20 -55 33 -18 13 -59 39 -92 57 -33
18 -71 40 -84 51 -13 10 -32 18 -42 18 -11 0 -19 3 -19 8 0 4 -10 12 -23 18
-12 6 -78 44 -147 84 -131 77 -245 140 -251 140 -2 0 -15 -6 -29 -13z m250
-136 c118 -68 321 -185 450 -261 129 -75 274 -159 322 -186 l88 -49 0 -625 0
-625 -63 -36 c-34 -20 -260 -149 -502 -288 -242 -139 -457 -263 -477 -277
l-38 -24 -62 38 c-35 21 -222 129 -415 241 -194 112 -351 207 -348 211 3 4 -1
7 -8 6 -8 0 -66 28 -130 64 l-117 65 0 625 0 625 38 21 c20 11 204 116 407
234 204 118 378 214 387 214 9 0 16 4 15 7 -2 8 224 148 233 146 3 -1 102 -58
220 -126z"/>
<path d="M1471 2716 c-24 -13 -23 -15 70 -61 288 -144 639 -328 635 -332 -3
-3 -169 79 -371 181 -353 180 -366 186 -392 172 l-27 -14 39 -16 c144 -60 695
-311 687 -314 -5 -1 -172 70 -371 158 -296 131 -366 158 -382 150 -21 -12 -26
-30 -8 -30 19 0 671 -254 661 -258 -8 -2 -451 163 -621 232 -70 28 -78 27
-125 -22 l-28 -31 43 -11 c146 -38 634 -172 637 -175 2 -1 -20 -8 -48 -15 -28
-7 -49 -15 -46 -18 3 -3 36 3 72 13 l67 18 -124 39 c-357 113 -562 182 -551
186 7 2 168 -47 358 -109 l346 -113 -38 -13 c-51 -18 -51 -20 -1 -18 59 3 94
15 76 26 -17 10 1 12 26 2 15 -5 14 -8 -6 -20 -23 -14 -14 -13 25 3 14 5 17 4
11 -5 -6 -10 -2 -11 15 -6 14 4 20 3 17 -3 -4 -5 8 -8 28 -6 20 1 33 -2 29 -7
-3 -5 10 -7 31 -4 21 2 33 0 30 -5 -4 -6 1 -7 11 -3 10 4 15 2 11 -3 -3 -5 3
-10 14 -10 26 0 25 1 -161 106 -91 51 -265 151 -387 222 -122 70 -223 128
-225 128 -2 -1 -14 -7 -27 -14z m534 -386 c-27 -12 -43 -12 -25 0 8 5 22 9 30
9 10 0 8 -3 -5 -9z m145 -10 c8 -5 11 -10 5 -10 -5 0 -17 5 -25 10 -8 5 -10
10 -5 10 6 0 17 -5 25 -10z m60 -10 c8 -5 11 -10 5 -10 -5 0 -17 5 -25 10 -8
5 -10 10 -5 10 6 0 17 -5 25 -10z"/>
<path d="M954 2416 c-143 -83 -320 -185 -392 -226 -118 -68 -132 -78 -132
-102 0 -16 2 -28 5 -28 2 0 140 88 305 196 166 107 304 194 306 191 4 -4 -146
-104 -487 -325 -114 -74 -126 -85 -121 -107 2 -15 9 -22 16 -18 6 4 117 84
246 178 129 94 266 193 303 219 42 30 64 52 57 56 -7 4 2 15 25 29 42 24 58
28 29 6 -14 -11 -15 -14 -4 -15 13 0 13 -1 0 -10 -8 -5 -10 -10 -4 -10 13 0
32 20 32 35 0 5 6 11 13 14 8 2 9 -1 4 -10 -5 -8 -4 -11 1 -6 5 5 9 18 9 30 0
11 6 22 14 25 9 3 11 0 6 -8 -5 -9 -4 -11 4 -6 6 4 8 12 5 18 -5 7 -1 9 9 5
17 -6 34 8 20 16 -5 3 -125 -63 -269 -147z m206 100 c0 -2 -7 -7 -16 -10 -8
-3 -12 -2 -9 4 6 10 25 14 25 6z m-690 -410 c0 -3 -4 -8 -10 -11 -5 -3 -10 -1
-10 4 0 6 5 11 10 11 6 0 10 -2 10 -4z"/>
<path d="M1186 2481 l-39 -40 34 -5 c184 -32 595 -96 607 -95 10 0 -120 29
-287 65 -167 35 -306 66 -309 69 -15 15 108 -9 628 -123 33 -8 30 -9 -40 -20
-78 -13 -168 -7 -539 33 -126 14 -134 14 -147 -2 -12 -17 2 -19 229 -30 133
-7 258 -14 277 -16 82 -9 -124 -6 -315 4 -190 10 -209 9 -224 -6 -15 -16 6
-17 329 -12 286 3 358 7 423 22 l78 18 -333 88 c-183 49 -333 89 -333 89 -1 0
-18 -18 -39 -39z"/>
<path d="M1076 2461 c-4 -5 -1 -11 5 -13 6 -2 -136 -111 -315 -241 -283 -207
-325 -242 -324 -263 1 -13 4 -24 6 -24 2 0 129 101 282 225 259 209 312 249
280 210 -7 -8 -9 -15 -5 -15 4 0 2 -7 -5 -15 -10 -12 -10 -15 1 -15 8 0 -107
-121 -255 -269 -236 -237 -268 -272 -260 -290 8 -19 32 5 219 211 116 128 215
232 220 230 6 -1 11 -11 11 -22 1 -11 -3 -17 -7 -14 -5 3 -7 -1 -6 -8 2 -7 2
-9 -1 -5 -2 5 -11 -1 -19 -13 -11 -15 -18 -18 -23 -11 -4 7 -67 -55 -162 -161
-236 -264 -222 -246 -212 -268 8 -16 34 13 178 191 174 215 202 247 190 214
-5 -13 -4 -16 4 -11 8 5 10 1 6 -11 -5 -17 -5 -17 9 -1 8 10 17 16 20 13 4 -3
5 -2 2 2 -3 3 2 17 11 30 8 14 17 34 19 45 2 11 10 27 17 35 7 8 13 22 14 30
2 8 10 23 20 34 9 10 13 19 9 19 -5 0 1 10 13 23 11 12 22 27 24 32 2 6 7 9
11 7 5 -1 6 2 3 6 -3 5 3 17 14 27 11 10 17 21 15 26 -3 4 4 14 15 22 18 13
19 15 5 21 -9 3 -13 10 -10 16 3 5 2 10 -4 10 -5 0 -12 -4 -15 -9z m9 -41
c-10 -11 -14 -20 -10 -20 5 0 -4 -13 -20 -30 -29 -30 -58 -43 -35 -15 7 8 9
15 4 15 -8 1 66 70 75 70 2 0 -4 -9 -14 -20z m-104 -164 c-13 -14 -20 -29 -17
-34 3 -5 -1 -15 -8 -21 -11 -9 -16 -9 -21 -1 -6 10 50 80 64 80 2 0 -6 -11
-18 -24z m-71 -147 c-7 -11 -14 -18 -17 -15 -3 3 0 12 7 21 18 21 23 19 10 -6z"/>
<path d="M1044 2385 c-10 -8 -14 -15 -8 -15 6 0 17 7 24 15 16 19 9 19 -16 0z"/>
<path d="M1125 2410 c-18 -20 -18 -20 3 -20 11 0 148 -14 303 -30 155 -17 286
-29 291 -28 5 2 -117 23 -272 47 -156 23 -288 45 -295 47 -6 3 -20 -4 -30 -16z"/>
<path d="M950 2309 c-26 -23 -475 -387 -499 -405 -2 -2 -1 -14 3 -28 6 -24 21
-13 257 200 137 125 252 224 254 222 5 -4 -191 -184 -431 -398 -58 -52 -70
-67 -66 -88 4 -22 32 3 263 234 142 142 256 260 254 263 -3 2 0 10 6 18 20 24
-5 13 -41 -18z"/>
<path d="M1035 2265 c-7 -11 -36 -60 -64 -110 -28 -49 -56 -90 -62 -90 -5 0
-14 -7 -19 -15 -7 -11 -10 -11 -10 -2 0 8 -5 10 -12 6 -8 -5 -9 -2 -5 9 3 10
5 17 3 17 -5 0 -320 -390 -335 -415 -10 -16 -9 -28 7 -63 l19 -43 138 211 c76
116 140 208 143 206 3 -3 -1 -12 -8 -21 -7 -9 -11 -18 -8 -21 6 -5 58 79 58
93 -1 4 -8 -5 -16 -20 -9 -16 -18 -26 -22 -23 -3 4 0 12 6 18 17 17 15 33 -3
18 -8 -7 -15 -8 -15 -2 0 5 7 15 15 22 9 7 15 8 15 2 0 -15 30 -8 42 9 35 50
-19 -52 -138 -259 -164 -284 -164 -285 -170 -279 -5 4 30 67 168 305 33 57 58
105 56 107 -9 10 -250 -375 -244 -390 3 -8 44 -80 92 -161 47 -80 83 -148 81
-151 -3 -3 -13 9 -22 26 -9 19 -20 29 -27 25 -8 -5 -9 -1 -5 12 7 18 6 18 -9
-1 -16 -20 -16 -20 -11 3 3 14 1 20 -6 15 -7 -4 -8 0 -4 11 5 11 3 15 -5 10
-8 -5 -9 -1 -5 12 7 18 6 18 -9 -1 -16 -20 -16 -20 -11 3 7 30 -2 54 -16 45
-7 -4 -8 0 -3 13 5 13 4 16 -3 9 -16 -16 198 -663 222 -671 10 -3 20 -4 22 -2
1 1 -46 131 -106 288 -60 156 -108 289 -106 293 1 5 55 -125 118 -289 98 -252
119 -299 137 -302 20 -3 17 6 -29 110 -107 238 -180 410 -176 414 2 3 57 -114
122 -258 64 -145 118 -264 119 -264 0 -1 11 -5 24 -9 19 -5 3 32 -109 250 -72
141 -129 258 -126 261 3 3 65 -112 138 -255 101 -197 138 -261 152 -261 10 0
17 4 15 8 -1 5 -66 117 -142 250 -76 133 -136 245 -133 248 3 3 15 -11 25 -33
11 -21 76 -134 145 -252 l125 -214 453 2 454 1 178 307 c97 170 180 315 184
323 4 7 24 42 45 77 21 34 38 68 38 74 0 10 -65 123 -390 682 l-57 98 -453 2
c-443 2 -453 2 -465 -18z m568 -8 l338 -2 35 -60 c19 -33 37 -68 40 -77 4 -10
10 -18 14 -18 4 0 13 -13 20 -30 7 -16 16 -30 21 -30 5 0 9 -7 9 -15 0 -14 11
-36 69 -133 17 -29 31 -57 31 -62 0 -6 5 -10 10 -10 6 0 10 -4 10 -10 0 -5 8
-19 17 -29 9 -11 18 -26 19 -33 1 -8 14 -31 29 -53 14 -22 38 -62 51 -90 31
-62 46 -88 59 -98 6 -6 6 -10 -2 -14 -7 -2 -13 -9 -13 -14 0 -5 -16 -33 -35
-63 -19 -30 -35 -60 -35 -66 0 -5 -4 -10 -8 -10 -4 0 -17 -21 -27 -47 -11 -27
-41 -81 -67 -121 -27 -40 -48 -79 -48 -87 0 -8 -5 -15 -12 -15 -6 0 -9 -3 -5
-6 3 -4 -5 -21 -18 -39 -14 -17 -25 -36 -25 -42 0 -5 -12 -25 -26 -44 -14 -19
-32 -47 -40 -64 -8 -16 -27 -52 -42 -79 l-29 -49 -445 -4 -445 -4 -12 28 c-6
16 -30 56 -51 88 -22 33 -40 65 -40 72 0 6 -4 13 -8 15 -5 2 -27 37 -49 78
-45 86 -72 133 -106 187 -45 74 -59 98 -70 126 -6 15 -15 27 -19 27 -4 0 -8 7
-8 15 0 8 -3 15 -7 15 -5 0 -17 21 -27 48 -11 26 -24 50 -29 53 -5 4 2 26 16
50 24 43 37 67 100 179 17 30 43 73 57 95 15 22 28 42 28 45 0 3 24 46 53 95
28 50 58 102 66 118 8 15 19 25 24 22 5 -4 6 1 3 9 -3 9 -1 16 5 16 6 0 11 7
11 16 0 8 14 35 30 59 17 24 30 48 30 54 0 13 30 16 130 13 47 -1 237 -3 423
-5z m-820 -324 c-27 -37 -91 -126 -142 -196 -51 -71 -95 -126 -98 -123 -3 3
59 93 138 200 78 108 145 194 147 191 2 -2 -18 -35 -45 -72z m-63 -698 c0 -5
-5 -3 -10 5 -5 8 -10 20 -10 25 0 6 5 3 10 -5 5 -8 10 -19 10 -25z"/>
<path d="M1972 2281 c9 -22 273 -478 281 -486 5 -5 -48 103 -119 241 -95 185
-133 250 -147 251 -10 1 -17 -1 -15 -6z"/>
<path d="M2168 2002 c92 -183 150 -286 155 -278 5 6 7 2 4 -12 -3 -14 -1 -20
6 -15 7 4 8 0 4 -11 -5 -11 -3 -15 5 -10 8 5 9 1 5 -12 -7 -18 -6 -18 9 1 16
20 16 20 11 -3 -7 -30 2 -54 16 -45 6 4 8 0 5 -8 -7 -19 18 -44 26 -26 4 7 4
-1 1 -18 l-4 -30 15 30 15 30 -5 -35 c-2 -19 -1 -44 3 -55 8 -20 8 -20 15 1 3
11 -6 79 -22 150 -16 71 -51 230 -78 353 -41 190 -51 224 -69 231 -26 10 -26
9 -15 -26 6 -16 23 -78 39 -139 16 -60 50 -190 76 -288 25 -98 45 -183 43
-189 -2 -6 -44 137 -93 318 -49 181 -89 330 -89 330 -1 1 -12 5 -25 9 -21 6
-23 5 -17 -11 24 -60 196 -608 194 -616 -2 -5 -50 134 -108 309 -57 175 -109
321 -115 325 -34 25 -22 -21 76 -279 60 -159 108 -292 106 -296 -2 -8 -28 55
-175 433 -49 125 -64 156 -81 158 -20 3 -19 0 10 -65 17 -37 46 -102 64 -143
18 -41 56 -128 85 -193 28 -65 50 -120 48 -123 -5 -4 -25 39 -160 341 -45 99
-81 181 -82 181 -1 1 -11 5 -23 8 -19 6 2 -41 125 -282z m239 -404 c-3 -8 -6
-5 -6 6 -1 11 2 17 5 13 3 -3 4 -12 1 -19z m40 -70 c-3 -8 -6 -5 -6 6 -1 11 2
17 5 13 3 -3 4 -12 1 -19z"/>
<path d="M2324 2214 c8 -21 40 -164 66 -294 11 -52 33 -161 49 -242 17 -80 29
-161 26 -180 l-5 -33 10 33 c9 26 4 77 -25 250 -20 119 -43 260 -51 312 -23
147 -23 146 -51 159 -22 10 -25 10 -19 -5z"/>
<path d="M2390 2191 c0 -4 9 -60 19 -122 42 -250 92 -600 88 -612 -3 -6 -6 1
-6 17 -1 34 -6 32 -15 -7 -4 -19 -3 -26 4 -22 6 4 10 -5 11 -22 l1 -28 9 30
c7 26 8 24 5 -12 -2 -24 0 -43 5 -43 13 0 13 -5 -26 343 -19 172 -37 347 -41
390 -5 60 -11 80 -25 87 -22 12 -29 12 -29 1z"/>
<path d="M900 2165 c-13 -14 -21 -27 -18 -30 2 -3 15 6 28 20 13 14 21 27 18
30 -2 3 -15 -6 -28 -20z"/>
<path d="M2454 2148 c3 -13 7 -50 11 -83 3 -33 19 -193 36 -355 16 -162 27
-320 25 -350 l-5 -55 11 48 c8 36 5 137 -12 420 -18 314 -24 374 -38 385 -24
18 -33 15 -28 -10z"/>
<path d="M2523 2038 c4 -58 14 -262 22 -454 17 -389 26 -485 19 -205 -2 101
-4 309 -4 462 0 275 0 278 -22 290 l-21 11 6 -104z"/>
<path d="M432 1364 l-2 -481 25 -11 c33 -15 34 -15 29 6 -2 9 -13 206 -24 437
-11 231 -21 445 -23 475 -2 30 -4 -161 -5 -426z m25 -431 c-3 -10 -5 -4 -5 12
0 17 2 24 5 18 2 -7 2 -21 0 -30z"/>
<path d="M453 1675 c4 -49 13 -223 22 -385 24 -447 22 -436 52 -455 l25 -17
-6 39 c-21 130 -76 735 -72 787 4 46 3 52 -3 26 -8 -31 -9 -29 -8 23 0 31 -3
61 -8 65 -4 4 -5 -33 -2 -83z m64 -767 c-3 -7 -5 -2 -5 12 0 14 2 19 5 13 2
-7 2 -19 0 -25z"/>
<path d="M485 1621 c-3 -11 8 -140 24 -288 16 -147 35 -323 42 -391 11 -103
16 -125 32 -133 10 -6 21 -9 23 -6 2 2 -21 164 -51 360 -33 213 -53 374 -50
399 4 38 3 39 -5 13 -8 -25 -9 -23 -5 18 5 49 1 61 -10 28z"/>
<path d="M515 1550 c-4 -11 1 -62 9 -113 21 -126 85 -523 92 -572 9 -63 13
-71 40 -84 22 -10 25 -9 20 6 -8 24 -55 244 -105 484 -24 113 -39 211 -36 230
4 30 4 31 -5 9 -8 -20 -9 -17 -5 18 6 45 1 55 -10 22z"/>
<path d="M547 1493 c-5 -12 -1 -52 8 -90 9 -37 43 -194 76 -347 32 -154 60
-280 62 -281 1 -1 13 -8 26 -15 20 -10 23 -10 18 3 -3 8 -45 162 -92 342 -72
270 -85 332 -76 351 6 13 6 24 2 24 -5 0 -11 8 -13 18 -4 14 -5 14 -11 -5z
m10 -35 c-3 -8 -6 -5 -6 6 -1 11 2 17 5 13 3 -3 4 -12 1 -19z"/>
<path d="M2345 1368 c-38 -67 -82 -142 -96 -167 -15 -26 -55 -93 -89 -151 -35
-58 -63 -112 -63 -120 0 -8 -9 -28 -20 -44 -12 -16 -15 -26 -8 -21 9 5 12 3 9
-6 -3 -8 -11 -13 -17 -11 -7 1 -10 -1 -7 -6 3 -5 -2 -20 -12 -33 -9 -13 -17
-30 -19 -38 -1 -7 -12 -24 -24 -37 -12 -13 -19 -24 -14 -24 4 0 0 -9 -10 -20
-10 -11 -14 -20 -10 -20 5 0 -6 -16 -25 -35 -19 -19 -30 -35 -24 -35 5 -1 -2
-10 -15 -20 -13 -11 -20 -20 -16 -20 5 0 0 -9 -9 -19 -19 -21 -3 -42 17 -22 8
8 7 11 -4 11 -10 1 -9 3 4 11 9 6 14 16 11 22 -4 7 -4 9 1 5 4 -4 17 -2 29 4
18 10 19 9 8 -4 -9 -12 -10 -17 -1 -20 6 -2 -12 -18 -41 -36 -53 -33 -78 -43
-44 -17 17 13 14 16 -13 15 -5 0 -7 -9 -7 -20 1 -14 -4 -19 -15 -18 -9 2 -15
-3 -13 -11 2 -8 -3 -11 -11 -8 -7 3 -14 -1 -14 -9 0 -7 3 -12 6 -10 3 2 177
103 386 225 297 174 381 227 386 246 4 13 5 26 2 29 -3 3 -44 -21 -92 -53 -47
-32 -111 -74 -141 -93 -30 -20 -126 -81 -212 -137 -155 -99 -203 -124 -143
-76 17 14 25 25 19 25 -5 0 -15 -5 -20 -10 -6 -6 -19 -8 -29 -4 -16 6 -15 9 6
25 14 11 18 19 10 19 -11 0 -11 3 -1 15 7 8 17 15 22 15 6 0 5 -7 -2 -15 -7
-8 -9 -15 -5 -15 4 0 2 -7 -5 -15 -25 -30 2 -14 112 68 62 46 195 143 296 217
146 107 182 138 182 157 0 12 -2 23 -5 23 -3 0 -76 -57 -163 -128 -337 -274
-440 -352 -403 -309 6 8 9 16 6 19 -3 3 5 13 17 24 l23 19 -19 -22 c-11 -13
-16 -23 -13 -23 4 0 89 68 189 151 101 83 222 180 270 217 92 70 91 68 74 132
-3 8 -5 24 -5 35 -1 14 -74 -53 -256 -235 -140 -140 -256 -252 -259 -249 -3 2
110 120 250 261 219 219 255 259 249 278 -7 21 -7 21 -23 3 -334 -372 -414
-455 -426 -443 -7 7 -4 15 9 28 18 16 18 16 6 -1 -8 -9 -12 -20 -9 -22 3 -3
24 17 46 44 43 51 56 77 24 48 -16 -15 -18 -15 -18 1 -1 9 -3 24 -6 32 -3 8
-3 12 -1 7 3 -4 10 -4 16 0 6 4 8 0 4 -10 -3 -10 -5 -17 -3 -17 4 0 102 121
270 332 l78 100 -17 39 c-10 21 -21 39 -24 38 -3 0 -62 -85 -130 -190 -68
-104 -126 -188 -128 -185 -4 4 26 54 160 262 68 105 87 141 80 155 -6 15 -22
-5 -78 -103z m65 -60 c-158 -218 -265 -357 -268 -348 -2 5 -8 7 -14 4 -11 -7
13 42 36 71 23 30 19 7 -5 -27 -12 -16 -19 -31 -16 -34 2 -3 49 57 103 133
153 216 205 285 211 279 3 -3 -18 -38 -47 -78z m113 -172 c-4 -7 -33 -35 -64
-62 -30 -27 -138 -123 -238 -213 -100 -90 -184 -161 -187 -159 -5 6 477 447
489 448 4 0 4 -6 0 -14z m-408 -241 c0 -13 -5 -29 -11 -35 -18 -18 -25 14 -8
39 19 27 20 26 19 -4z m-78 -143 c-21 -21 -35 -41 -32 -44 3 -2 -5 -13 -17
-24 l-23 -19 19 23 c11 12 15 22 11 22 -5 0 4 13 20 30 16 16 26 33 22 36 -4
4 -2 13 5 21 8 10 14 11 22 3 7 -7 -1 -22 -27 -48z m-87 -126 c0 -2 -8 -10
-17 -17 -16 -13 -17 -12 -4 4 13 16 21 21 21 13z"/>
<path d="M576 1445 c-3 -9 36 -168 87 -355 77 -285 95 -340 112 -344 10 -3 20
-4 22 -2 2 1 -8 36 -22 77 -89 258 -185 575 -180 593 5 17 4 18 -5 6 -9 -12
-10 -10 -6 13 7 29 2 37 -8 12z"/>
<path d="M2543 1300 c0 -30 2 -43 4 -27 2 15 2 39 0 55 -2 15 -4 2 -4 -28z"/>
<path d="M2449 1283 c-20 -26 -93 -117 -162 -201 -70 -84 -127 -156 -127 -158
0 -14 28 15 179 184 137 154 162 186 155 203 -8 18 -13 15 -45 -28z"/>
<path d="M2561 1174 c0 -11 3 -14 6 -6 3 7 2 16 -1 19 -3 4 -6 -2 -5 -13z"/>
<path d="M2445 929 c-60 -44 -186 -134 -278 -200 -93 -67 -166 -124 -163 -127
3 -3 61 31 128 76 68 44 188 124 268 176 80 53 149 97 153 99 5 1 7 14 5 29
-3 26 -5 25 -113 -53z"/>
<path d="M690 737 c0 -3 51 -33 113 -67 61 -35 244 -139 405 -232 283 -163
293 -168 319 -154 l27 14 -84 42 c-281 140 -630 323 -626 327 3 3 165 -77 360
-176 346 -177 356 -181 383 -167 l28 14 -25 10 c-46 18 -705 314 -710 319 -13
13 67 -20 392 -163 286 -126 353 -152 369 -144 21 12 26 30 7 30 -6 0 -171 62
-365 137 -321 124 -352 138 -331 149 21 11 18 12 -24 9 -26 -1 -45 1 -42 6 3
5 -3 6 -12 2 -12 -5 -15 -3 -9 6 6 10 3 11 -13 2 -25 -13 -35 -14 -28 -2 8 13
-18 21 -35 10 -19 -12 -32 -11 -24 1 4 6 -1 7 -11 3 -13 -5 -15 -3 -9 7 5 9 4
11 -3 6 -6 -4 -21 -2 -32 4 -11 6 -20 9 -20 7z m116 -36 c-7 -11 22 -23 35
-15 5 3 17 1 26 -5 14 -7 10 -9 -17 -6 -50 4 -75 15 -58 26 17 11 20 11 14 0z"/>
<path d="M1198 693 c7 -3 16 -2 19 1 4 3 -2 6 -13 5 -11 0 -14 -3 -6 -6z"/>
<path d="M1330 693 c-25 -1 -76 -8 -114 -15 l-69 -12 259 -53 c340 -69 412
-86 392 -91 -9 -2 -155 26 -324 63 -168 36 -311 64 -317 61 -7 -2 -5 -5 3 -5
9 -1 151 -37 315 -81 l300 -79 38 37 c37 36 37 37 15 43 -13 4 -160 29 -328
55 -266 42 -298 50 -260 57 47 8 162 0 474 -34 170 -18 179 -18 192 -2 12 17
-2 19 -224 30 -311 15 -361 23 -97 15 306 -10 348 -9 352 6 4 9 -56 12 -279
10 -155 -1 -303 -3 -328 -5z"/>
<path d="M984 675 c-23 -9 14 -25 318 -141 189 -73 351 -135 360 -139 12 -5
30 5 60 33 l42 40 -44 12 c-25 6 -176 47 -337 91 -161 43 -296 79 -300 80 -4
1 17 9 47 19 30 10 46 18 34 19 -11 1 -47 -8 -79 -19 -66 -23 -101 -26 -41 -4
22 8 41 15 42 17 8 8 -81 1 -102 -8z m36 -5 c-8 -5 -22 -9 -30 -9 -10 0 -8 3
5 9 27 12 43 12 25 0z m384 -130 c170 -55 312 -102 314 -105 16 -15 -56 6
-353 105 -182 60 -316 107 -300 104 17 -2 170 -49 339 -104z"/>
<path d="M1280 664 c8 -2 134 -22 280 -44 146 -22 272 -43 281 -46 15 -4 48
22 38 30 -5 4 -579 67 -599 65 -13 -1 -13 -2 0 -5z"/>
<path d="M1118 653 c6 -2 18 -2 25 0 6 3 1 5 -13 5 -14 0 -19 -2 -12 -5z"/>
<path d="M1905 540 c-3 -5 -2 -10 4 -10 5 0 13 5 16 10 3 6 2 10 -4 10 -5 0
-13 -4 -16 -10z"/>
</g>
</svg>
